# xmcd CD database file generated by Grip 2.95
# 
# Track frame offsets:
#       150
#       14083
#       28831
#       42207
#       56785
#       74331
#       85822
#       104770
#       120709
#       135531
#       153574
# 
# Disc length: 2269 seconds
# 
# Revision: 3
# Processed by: cddbd v1.4b41PL2 Copyright (c) Steve Scherf et al.
# Submitted via: Grip 2.95
# 
DISCID=9e08db0b
DTITLE=Rainy Pass - Cold Rains of Winter
DYEAR=1900
DGENRE=
TTITLE0=Kentucky Pride
TTITLE1=The Ring Behind the Glass
TTITLE2=Eight More Miles to Louisville
TTITLE3=Steel Lake Breakdown
TTITLE4=Dry County
TTITLE5=A Run For Your Love
TTITLE6=The Devil Underground
TTITLE7=High Divide
TTITLE8=Wild Desert Canyon
TTITLE9=Painting the Town with My Tears
TTITLE10=Cold Rains of Winter
EXTD=
EXTT0=
EXTT1=
EXTT2=
EXTT3=
EXTT4=
EXTT5=
EXTT6=
EXTT7=
EXTT8=
EXTT9=
EXTT10=
PLAYORDER=
